<svg xmlns="http://www.w3.org/2000/svg" fill="none" viewBox="-1.04 -1.04 50 50" id="Board-Game-Ludo--Streamline-Ultimate.svg" height="50" width="50"><desc>Board Game Ludo Streamline Icon: https://streamlinehq.com</desc><path fill="#ffffff" stroke="#191919" stroke-linecap="round" stroke-linejoin="round" d="M23.96 1.9966666666666668H3.9933333333333336c-0.5295559333333334 0 -1.0374081 0.2103688 -1.4118629666666669 0.5848037C2.2070354666666665 2.9559252333333332 1.9966666666666668 3.4637774 1.9966666666666668 3.9933333333333336v19.96666666666667h21.963333333333335V1.9966666666666668Z" stroke-width="2.08"></path><path fill="#808080" d="M45.92333333333334 23.96V3.9933333333333336c0 -0.5295559333333334 -0.21044866666666667 -1.0374081 -0.5848236666666667 -1.4118629666666669C44.96413466666667 2.2070354666666665 44.45618266666667 1.9966666666666668 43.92666666666667 1.9966666666666668H23.96v21.963333333333335h21.963333333333335Z" stroke-width="2.08"></path><path fill="#808080" d="M1.9966666666666668 23.96v19.96666666666667c0 0.529516 0.2103688 1.037468 0.5848037 1.411843C2.9559252333333332 45.71288466666667 3.4637774 45.92333333333334 3.9933333333333336 45.92333333333334h19.96666666666667V23.96H1.9966666666666668Z" stroke-width="2.08"></path><path fill="#b2b2b2" d="M27.953333333333337 12.978333333333333c0 -1.3822324333333336 0.409716 -2.7334566333333337 1.177634 -3.8827779000000002s1.8592960000000003 -2.0451058 3.1363640000000004 -2.5740827000000004c1.2768683333333333 -0.5289569333333334 2.6821223333333335 -0.6673658666666666 4.037859 -0.39767610000000003 1.3557366666666668 0.26968976666666666 2.600858 0.9353584666666667 3.5782263333333337 1.9127867l5.4548933333333345 -5.4548933333333345c-0.374375 -0.37447483333333337 -0.8821273333333335 -0.5849035333333333 -1.4116433333333334 -0.5850233333333333H23.96v21.963333333333335l6.039916666666667 -6.039916666666667c-0.649915 -0.6482577666666668 -1.1652546666666668 -1.4185518000000001 -1.5164683333333333 -2.266635966666667C28.13223466666667 14.805383166666667 27.952135333333334 13.896260900000001 27.953333333333337 12.978333333333333Z" stroke-width="2.08"></path><path fill="#b2b2b2" d="M5.99 34.94166666666667c-0.00009983333333333335 -1.3822923333333335 0.4096960333333334 -2.733436666666667 1.1775940666666667 -3.8827180000000006 0.7678780666666667 -1.1492813333333334 1.8593359333333335 -2.045185666666667 3.1363440333333332 -2.5741026666666667 1.277028066666667 -0.5289170000000001 2.682222166666667 -0.6674856666666666 4.0378989333333335 -0.397736 1.3556568000000002 0.26974966666666667 2.6009179000000002 0.9354383333333335 3.5782463000000004 1.9128066666666668L23.96 23.96H1.9966666666666668v19.96666666666667c0.00011980000000000001 0.529516 0.21054850000000003 1.0372683333333332 0.5850233333333333 1.4116433333333334l5.4548933333333345 -5.4548933333333345c-0.6497952 -0.6483176666666667 -1.1650949333333336 -1.4186316666666667 -1.5163086000000001 -2.266616C6.1690411 36.76861666666667 5.988841933333334 35.859534333333336 5.99 34.94166666666667Z" stroke-width="2.08"></path><path fill="#e3e3e3" stroke="#191919" stroke-linecap="round" stroke-linejoin="round" d="M23.96 23.96v21.963333333333335h19.96666666666667c0.529516 0 1.037468 -0.21044866666666667 1.411843 -0.5848236666666667S45.92333333333334 44.45618266666667 45.92333333333334 43.92666666666667V23.96H23.96Z" stroke-width="2.08"></path><path fill="#e3e3e3" d="M34.94166666666667 19.96666666666667c1.853505666666667 0 3.630938333333334 -0.7362708333333334 4.941550333333334 -2.0468429C41.193829 16.609271666666668 41.93 14.831759133333334 41.93 12.978333333333333c0 -1.8534258000000001 -0.7361710000000001 -3.630938333333334 -2.046783 -4.941490433333334C38.572605 6.726270833333333 36.79517233333333 5.99 34.94166666666667 5.99c-1.853505666666667 0 -3.630938333333334 0.7362708333333334 -4.941550333333334 2.0468429C28.689504333333335 9.347395 27.953333333333337 11.124907533333335 27.953333333333337 12.978333333333333c0 1.8534258000000001 0.7361710000000001 3.630938333333334 2.046783 4.941490433333334C31.310728333333333 19.230395833333333 33.088161 19.96666666666667 34.94166666666667 19.96666666666667Z" stroke-width="2.08"></path><path fill="#e3e3e3" d="M12.978333333333333 41.93c1.8534258000000001 0 3.630938333333334 -0.7361710000000001 4.941490433333334 -2.046783C19.230395833333333 38.572605 19.96666666666667 36.79517233333333 19.96666666666667 34.94166666666667c0 -1.853505666666667 -0.7362708333333334 -3.630938333333334 -2.0468429 -4.941550333333334C16.609271666666668 28.689504333333335 14.831759133333334 27.953333333333337 12.978333333333333 27.953333333333337c-1.8534258000000001 0 -3.630938333333334 0.7361710000000001 -4.941490433333334 2.046783C6.726270833333333 31.310728333333333 5.99 33.088161 5.99 34.94166666666667c0 1.853505666666667 0.7362708333333334 3.630938333333334 2.0468429 4.941550333333334C9.347395 41.193829 11.124907533333335 41.93 12.978333333333333 41.93Z" stroke-width="2.08"></path><path fill="#ffffff" d="M27.953333333333337 12.9783533c-0.001198 0.9179076000000002 0.179101 1.8269899333333333 0.5303146666666667 2.6750541333333335 0.3512136666666667 0.8480642 0.8665533333333334 1.6183782000000002 1.5162686666666667 2.266695866666667l9.883500000000002 -9.883500000000002c-0.9773683333333334 -0.9774282333333334 -2.2224896666666667 -1.6430969333333334 -3.5782263333333337 -1.9127867 -1.3557366666666668 -0.26968976666666666 -2.760990666666667 -0.13128083333333335 -4.037859 0.39767610000000003 -1.277068 0.5289769000000001 -2.368446 1.4247614333333336 -3.1363640000000004 2.5740827000000004C28.363049333333336 10.244896666666667 27.953333333333337 11.596120866666668 27.953333333333337 12.9783533Z" stroke-width="2.08"></path><path fill="#ffffff" d="M5.99 34.94166666666667c-0.0011580666666666667 0.9178676666666667 0.17906106666666669 1.8269500000000003 0.5302747333333333 2.6751340000000003 0.3512136666666667 0.8479843333333335 0.8665134 1.6182983333333334 1.5163086000000001 2.266616l9.883500000000002 -9.883500000000002c-0.9773284000000001 -0.9773683333333334 -2.2225695333333335 -1.643057 -3.5782463000000004 -1.9128066666666668 -1.3556767666666667 -0.26955 -2.760870866666667 -0.131181 -4.037878966666667 0.397736 -1.277028066666667 0.5289170000000001 -2.3684859333333335 1.4248213333333335 -3.1363640000000004 2.5741026666666667C6.399716000000001 32.20823 5.989900166666668 33.55937433333334 5.99 34.94166666666667Z" stroke-width="2.08"></path><path fill="#b2b2b2" stroke="#191919" stroke-linecap="round" stroke-linejoin="round" d="M17.920442733333335 17.9201033c-0.6489566 0.6489566 -1.4193904 1.1637372000000001 -2.267294866666667 1.5149508666666667 -0.8479044666666667 0.3512136666666667 -1.7566873 0.5320118333333335 -2.6744551333333337 0.5320118333333335 -0.9177678333333334 0 -1.8265506666666667 -0.1807981666666667 -2.6744551333333337 -0.5320118333333335 -0.8479044666666667 -0.3512136666666667 -1.6183382666666668 -0.8659942666666667 -2.267294866666667 -1.5149508666666667s-1.1637372000000001 -1.4193904 -1.5149508666666667 -2.267294866666667C6.170758233333334 14.804903966666668 5.99 13.896121133333335 5.99 12.9783533c0 -0.9177678333333334 0.18075823333333335 -1.8265506666666667 0.5319918666666668 -2.6744551333333337 0.3512136666666667 -0.8479044666666667 0.8659942666666667 -1.6183382666666668 1.5149508666666667 -2.267294866666667 1.3106319666666668 -1.3106319666666668 3.0882243666666667 -2.0469427333333337 4.941750000000001 -2.0469427333333337 1.853505666666667 0 3.6311180333333333 0.7363107666666667 4.941750000000001 2.0469427333333337 1.3106319666666668 1.3106319666666668 2.0470226 3.0882443333333334 2.0470226 4.941750000000001 0 1.8535256333333334 -0.7363906333333334 3.6311180333333333 -2.0470226 4.941750000000001Z" stroke-width="2.08"></path><path fill="#808080" stroke="#191919" stroke-linecap="round" stroke-linejoin="round" d="M39.88661133333334 39.88341666666667c-0.6489166666666667 0.6489166666666667 -1.4192306666666668 1.1638570000000001 -2.267215 1.515070666666667 -0.8479843333333335 0.3512136666666667 -1.7566673333333336 0.531912 -2.674535 0.531912 -0.917668 0 -1.8265506666666667 -0.18069833333333335 -2.6743353333333335 -0.531912 -0.8479843333333335 -0.3512136666666667 -1.6182983333333334 -0.8661540000000001 -2.267414666666667 -1.515070666666667 -0.6489166666666667 -0.6489166666666667 -1.1636573333333333 -1.4194303333333333 -1.5148710000000003 -2.267215 -0.3512136666666667 -0.8479843333333335 -0.531912 -1.7566673333333336 -0.531912 -2.674535 0 -0.917668 0.18069833333333335 -1.8265506666666667 0.531912 -2.674535 0.3512136666666667 -0.8477846666666666 0.8659543333333334 -1.6182983333333334 1.5148710000000003 -2.267215 1.3108116666666667 -1.310612 3.0882443333333334 -2.0469826666666666 4.941750000000001 -2.0469826666666666 1.853505666666667 0 3.6311380000000004 0.7363706666666667 4.941750000000001 2.0469826666666666 1.3108116666666667 1.310612 2.0469826666666666 3.0882443333333334 2.0469826666666666 4.941750000000001 0 1.853505666666667 -0.7361710000000001 3.6311380000000004 -2.0469826666666666 4.941750000000001Z" stroke-width="2.08"></path><path stroke="#191919" stroke-linecap="round" stroke-linejoin="round" d="M45.92333333333334 23.96V3.9933333333333336c0 -0.5295559333333334 -0.21044866666666667 -1.0374081 -0.5848236666666667 -1.4118629666666669C44.96413466666667 2.2070354666666665 44.45618266666667 1.9966666666666668 43.92666666666667 1.9966666666666668H23.96v21.963333333333335h21.963333333333335Z" stroke-width="2.08"></path><path stroke="#191919" stroke-linecap="round" stroke-linejoin="round" d="M1.9966666666666668 23.96v19.96666666666667c0 0.529516 0.2103688 1.037468 0.5848037 1.411843C2.9559252333333332 45.71288466666667 3.4637774 45.92333333333334 3.9933333333333336 45.92333333333334h19.96666666666667V23.96H1.9966666666666668Z" stroke-width="2.08"></path><path stroke="#191919" stroke-linecap="round" stroke-linejoin="round" d="M34.94166666666667 19.96666666666667c1.853505666666667 0 3.630938333333334 -0.7362708333333334 4.941550333333334 -2.0468429C41.193829 16.609271666666668 41.93 14.831759133333334 41.93 12.978333333333333c0 -1.8534258000000001 -0.7361710000000001 -3.630938333333334 -2.046783 -4.941490433333334C38.572605 6.726270833333333 36.79517233333333 5.99 34.94166666666667 5.99c-1.853505666666667 0 -3.630938333333334 0.7362708333333334 -4.941550333333334 2.0468429C28.689504333333335 9.347395 27.953333333333337 11.124907533333335 27.953333333333337 12.978333333333333c0 1.8534258000000001 0.7361710000000001 3.630938333333334 2.046783 4.941490433333334C31.310728333333333 19.230395833333333 33.088161 19.96666666666667 34.94166666666667 19.96666666666667Z" stroke-width="2.08"></path><path stroke="#191919" stroke-linecap="round" stroke-linejoin="round" d="M12.978333333333333 41.93c1.8534258000000001 0 3.630938333333334 -0.7361710000000001 4.941490433333334 -2.046783C19.230395833333333 38.572605 19.96666666666667 36.79517233333333 19.96666666666667 34.94166666666667c0 -1.853505666666667 -0.7362708333333334 -3.630938333333334 -2.0468429 -4.941550333333334C16.609271666666668 28.689504333333335 14.831759133333334 27.953333333333337 12.978333333333333 27.953333333333337c-1.8534258000000001 0 -3.630938333333334 0.7361710000000001 -4.941490433333334 2.046783C6.726270833333333 31.310728333333333 5.99 33.088161 5.99 34.94166666666667c0 1.853505666666667 0.7362708333333334 3.630938333333334 2.0468429 4.941550333333334C9.347395 41.193829 11.124907533333335 41.93 12.978333333333333 41.93Z" stroke-width="2.08"></path></svg>